<svg xmlns="http://www.w3.org/2000/svg" xmlns:xlink="http://www.w3.org/1999/xlink" width="70" zoomAndPan="magnify" viewBox="0 0 52.5 52.499999" height="70" preserveAspectRatio="xMidYMid meet" version="1.2"><defs><clipPath id="375a5d6b73"><path d="M 0 0 L 52.003906 0 L 52.003906 52.003906 L 0 52.003906 Z M 0 0 "/></clipPath></defs><g id="927d9a1941"><g clip-rule="nonzero" clip-path="url(#375a5d6b73)"><path style=" stroke:none;fill-rule:nonzero;fill:#ffffff;fill-opacity:1;" d="M 0 0 L 52.003906 0 L 52.003906 52.003906 L 0 52.003906 Z M 0 0 "/><path style=" stroke:none;fill-rule:nonzero;fill:#ffffff;fill-opacity:1;" d="M 0 0 L 52.003906 0 L 52.003906 52.003906 L 0 52.003906 Z M 0 0 "/></g><g style="fill:#000000;fill-opacity:1;"><g transform="translate(9.458358, 29.503734)"><path style="stroke:none" d="M 0.15625 2.15625 C -0.195312 2.15625 -0.503906 2.117188 -0.765625 2.046875 L -0.765625 0.75 C -0.492188 0.820312 -0.25 0.859375 -0.03125 0.859375 C 0.3125 0.859375 0.554688 0.75 0.703125 0.53125 C 0.847656 0.320312 0.921875 -0.0078125 0.921875 -0.46875 L 0.921875 -7.328125 L 2.46875 -7.328125 L 2.46875 -0.46875 C 2.46875 0.382812 2.269531 1.035156 1.875 1.484375 C 1.488281 1.929688 0.914062 2.15625 0.15625 2.15625 Z M 0.15625 2.15625 "/></g></g><g style="fill:#000000;fill-opacity:1;"><g transform="translate(12.856107, 29.503734)"><path style="stroke:none" d="M 5.40625 0 L 4.875 -1.75 L 2.203125 -1.75 L 1.671875 0 L 0 0 L 2.59375 -7.359375 L 4.484375 -7.359375 L 7.078125 0 Z M 4.5 -3.046875 C 4.007812 -4.628906 3.734375 -5.523438 3.671875 -5.734375 C 3.609375 -5.941406 3.566406 -6.101562 3.546875 -6.21875 C 3.429688 -5.789062 3.113281 -4.734375 2.59375 -3.046875 Z M 4.5 -3.046875 "/></g></g><g style="fill:#000000;fill-opacity:1;"><g transform="translate(19.937257, 29.503734)"><path style="stroke:none" d="M 5.109375 -7.328125 L 6.671875 -7.328125 L 4.1875 0 L 2.484375 0 L 0 -7.328125 L 1.5625 -7.328125 L 2.953125 -2.96875 C 3.023438 -2.707031 3.101562 -2.40625 3.1875 -2.0625 C 3.269531 -1.71875 3.320312 -1.484375 3.34375 -1.359375 C 3.375 -1.660156 3.5 -2.195312 3.71875 -2.96875 Z M 5.109375 -7.328125 "/></g></g><g style="fill:#000000;fill-opacity:1;"><g transform="translate(26.607469, 29.503734)"><path style="stroke:none" d="M 0.921875 0 L 0.921875 -7.328125 L 2.46875 -7.328125 L 2.46875 0 Z M 0.921875 0 "/></g></g><g style="fill:#000000;fill-opacity:1;"><g transform="translate(30.005218, 29.503734)"><path style="stroke:none" d="M 5.140625 0 L 0.921875 0 L 0.921875 -7.328125 L 5.140625 -7.328125 L 5.140625 -6.0625 L 2.46875 -6.0625 L 2.46875 -4.453125 L 4.953125 -4.453125 L 4.953125 -3.171875 L 2.46875 -3.171875 L 2.46875 -1.28125 L 5.140625 -1.28125 Z M 5.140625 0 "/></g></g><g style="fill:#000000;fill-opacity:1;"><g transform="translate(35.753328, 29.503734)"><path style="stroke:none" d="M 2.46875 -4.078125 L 2.984375 -4.078125 C 3.472656 -4.078125 3.832031 -4.15625 4.0625 -4.3125 C 4.300781 -4.476562 4.421875 -4.738281 4.421875 -5.09375 C 4.421875 -5.4375 4.300781 -5.679688 4.0625 -5.828125 C 3.820312 -5.984375 3.453125 -6.0625 2.953125 -6.0625 L 2.46875 -6.0625 Z M 2.46875 -2.8125 L 2.46875 0 L 0.921875 0 L 0.921875 -7.328125 L 3.0625 -7.328125 C 4.050781 -7.328125 4.785156 -7.144531 5.265625 -6.78125 C 5.742188 -6.414062 5.984375 -5.867188 5.984375 -5.140625 C 5.984375 -4.703125 5.863281 -4.316406 5.625 -3.984375 C 5.382812 -3.648438 5.050781 -3.382812 4.625 -3.1875 C 5.726562 -1.539062 6.445312 -0.476562 6.78125 0 L 5.046875 0 L 3.296875 -2.8125 Z M 2.46875 -2.8125 "/></g></g></g></svg>